<svg xmlns="http://www.w3.org/2000/svg" xmlns:xlink="http://www.w3.org/1999/xlink" width="486" zoomAndPan="magnify" viewBox="0 0 364.5 157.5" height="210" preserveAspectRatio="xMidYMid meet" version="1.0"><defs><g/><clipPath id="47ba2e27df"><path d="M 0.328125 0 L 363.675781 0 L 363.675781 157 L 0.328125 157 Z M 0.328125 0 " clip-rule="nonzero"/></clipPath><clipPath id="26028bdd67"><path d="M 179 21 L 348 21 L 348 146 L 179 146 Z M 179 21 " clip-rule="nonzero"/></clipPath><clipPath id="db44f5e68d"><path d="M 171.886719 39.53125 L 334.640625 0.0820312 L 362.996094 117.0625 L 200.238281 156.511719 Z M 171.886719 39.53125 " clip-rule="nonzero"/></clipPath><clipPath id="6ca92be416"><path d="M 171.886719 39.53125 L 334.640625 0.0820312 L 362.996094 117.0625 L 200.238281 156.511719 Z M 171.886719 39.53125 " clip-rule="nonzero"/></clipPath><clipPath id="699596677f"><path d="M 0.328125 63.136719 L 30.980469 63.136719 L 30.980469 93.789062 L 0.328125 93.789062 Z M 0.328125 63.136719 " clip-rule="nonzero"/></clipPath></defs><g clip-path="url(#47ba2e27df)"><path fill="#ffffff" d="M 0.328125 0 L 363.675781 0 L 363.675781 157 L 0.328125 157 Z M 0.328125 0 " fill-opacity="1" fill-rule="nonzero"/></g><g clip-path="url(#26028bdd67)"><g clip-path="url(#db44f5e68d)"><g clip-path="url(#6ca92be416)"><path fill="#00bf63" d="M 344.925781 55.339844 C 345.539062 57.652344 346.816406 59.035156 347.871094 59.808594 C 346.285156 61.957031 344.6875 64.09375 343.085938 66.222656 C 341.339844 64.910156 338.5 62.121094 337.257812 57.421875 C 334.3125 61.363281 331.335938 65.277344 328.320312 69.160156 C 324.875 73.597656 321.386719 78 317.839844 82.363281 C 314.296875 86.726562 310.695312 91.046875 307.03125 95.320312 C 303.363281 99.589844 299.628906 103.808594 295.804688 107.960938 C 291.976562 112.109375 288.058594 116.1875 284 120.152344 C 279.945312 124.121094 275.753906 127.980469 271.3125 131.625 C 266.859375 135.261719 262.195312 138.730469 256.882812 141.578125 C 254.21875 142.988281 251.375 144.246094 248.167969 145.027344 C 246.558594 145.402344 244.851562 145.652344 243.039062 145.628906 C 242.136719 145.617188 241.207031 145.519531 240.273438 145.351562 C 239.339844 145.167969 238.40625 144.894531 237.496094 144.527344 C 236.59375 144.144531 235.722656 143.675781 234.917969 143.125 C 234.1875 142.5625 233.449219 142.042969 232.800781 141.367188 C 232.113281 140.742188 231.539062 140 230.964844 139.265625 C 230.707031 138.878906 230.457031 138.488281 230.207031 138.097656 C 230.074219 137.902344 229.96875 137.703125 229.867188 137.496094 L 229.558594 136.882812 C 228.761719 135.238281 228.226562 133.511719 227.964844 131.835938 L 227.851562 131.203125 L 227.78125 130.582031 C 227.742188 130.167969 227.691406 129.75 227.660156 129.339844 C 227.636719 128.527344 227.578125 127.703125 227.617188 126.910156 C 227.683594 123.714844 228.179688 120.695312 228.859375 117.796875 C 229.539062 114.894531 230.398438 112.097656 231.34375 109.359375 C 233.246094 103.890625 235.484375 98.65625 237.816406 93.503906 C 240.148438 88.355469 242.585938 83.296875 244.996094 78.257812 C 247.410156 73.222656 249.800781 68.210938 252.027344 63.175781 C 254.238281 58.144531 256.320312 53.074219 257.820312 48 C 258.566406 45.472656 259.148438 42.9375 259.433594 40.503906 L 259.507812 39.601562 L 259.546875 39.152344 L 259.554688 38.71875 C 259.558594 38.425781 259.574219 38.132812 259.570312 37.847656 L 259.535156 37.007812 C 259.453125 35.917969 259.269531 34.898438 258.960938 34.035156 C 258.628906 33.183594 258.195312 32.492188 257.621094 31.902344 C 257.476562 31.757812 257.347656 31.59375 257.164062 31.476562 L 256.910156 31.277344 C 256.824219 31.210938 256.757812 31.136719 256.640625 31.078125 C 256.429688 30.949219 256.222656 30.816406 256.015625 30.683594 L 255.359375 30.347656 C 254.464844 29.9375 253.5 29.652344 252.464844 29.492188 C 251.429688 29.328125 250.3125 29.332031 249.175781 29.414062 C 246.886719 29.585938 244.480469 30.234375 242.097656 31.09375 C 239.714844 31.980469 237.347656 33.105469 235.023438 34.367188 C 230.375 36.910156 225.902344 39.992188 221.570312 43.289062 C 217.242188 46.597656 213.054688 50.148438 208.980469 53.84375 C 204.90625 57.539062 200.9375 61.371094 197.070312 65.308594 C 195.132812 67.277344 193.226562 69.273438 191.34375 71.289062 C 190.402344 72.296875 189.46875 73.3125 188.542969 74.332031 C 187.625 75.347656 186.691406 76.394531 185.828125 77.390625 L 179.808594 72.210938 C 180.773438 71.097656 181.703125 70.058594 182.660156 69.003906 C 183.613281 67.949219 184.570312 66.910156 185.535156 65.875 C 187.464844 63.804688 189.421875 61.761719 191.40625 59.746094 C 195.371094 55.707031 199.445312 51.773438 203.648438 47.957031 C 207.855469 44.144531 212.199219 40.460938 216.75 36.980469 C 221.308594 33.507812 226.0625 30.222656 231.222656 27.394531 C 233.808594 25.992188 236.5 24.703125 239.355469 23.640625 C 242.222656 22.609375 245.253906 21.757812 248.550781 21.496094 C 250.195312 21.378906 251.890625 21.371094 253.621094 21.636719 C 255.347656 21.898438 257.089844 22.398438 258.730469 23.160156 C 259.136719 23.363281 259.542969 23.5625 259.941406 23.78125 L 261.089844 24.5 C 261.28125 24.609375 261.472656 24.769531 261.664062 24.917969 L 262.234375 25.367188 C 262.625 25.652344 262.964844 26.011719 263.3125 26.363281 C 264.691406 27.769531 265.746094 29.507812 266.40625 31.269531 C 267.046875 33.039062 267.335938 34.800781 267.457031 36.488281 L 267.511719 37.746094 C 267.515625 38.15625 267.5 38.5625 267.492188 38.972656 L 267.472656 39.582031 L 267.425781 40.175781 L 267.328125 41.367188 C 266.964844 44.484375 266.265625 47.414062 265.4375 50.242188 C 263.761719 55.894531 261.570312 61.183594 259.292969 66.378906 C 257 71.570312 254.574219 76.644531 252.160156 81.6875 C 249.742188 86.734375 247.328125 91.746094 245.050781 96.777344 C 242.773438 101.808594 240.613281 106.863281 238.847656 111.957031 C 237.96875 114.5 237.1875 117.054688 236.59375 119.59375 C 235.992188 122.132812 235.605469 124.664062 235.554688 127.058594 C 235.519531 127.664062 235.574219 128.234375 235.582031 128.820312 C 235.605469 129.101562 235.644531 129.378906 235.667969 129.660156 L 235.710938 130.082031 L 235.785156 130.480469 C 235.949219 131.566406 236.28125 132.53125 236.695312 133.402344 L 236.855469 133.722656 C 236.902344 133.832031 236.957031 133.941406 237.027344 134.035156 C 237.160156 134.226562 237.285156 134.425781 237.40625 134.625 C 237.710938 134.976562 237.96875 135.363281 238.332031 135.667969 C 238.640625 136.019531 239.066406 136.285156 239.429688 136.589844 C 239.78125 136.824219 240.144531 137.019531 240.527344 137.1875 C 240.917969 137.339844 241.328125 137.464844 241.761719 137.554688 C 242.207031 137.625 242.667969 137.683594 243.164062 137.6875 C 244.148438 137.703125 245.226562 137.558594 246.335938 137.300781 C 248.566406 136.761719 250.894531 135.773438 253.160156 134.566406 C 257.710938 132.132812 262.082031 128.921875 266.277344 125.488281 C 270.472656 122.039062 274.515625 118.324219 278.449219 114.476562 C 282.386719 110.628906 286.214844 106.644531 289.964844 102.578125 C 293.714844 98.507812 297.390625 94.355469 301.007812 90.148438 C 304.621094 85.9375 308.175781 81.667969 311.679688 77.355469 C 315.183594 73.042969 318.636719 68.6875 322.046875 64.292969 C 325.03125 60.445312 327.980469 56.570312 330.898438 52.671875 C 326.054688 52.78125 322.609375 50.785156 320.867188 49.472656 C 322.417969 47.414062 323.957031 45.351562 325.484375 43.285156 C 326.535156 44.058594 328.222656 44.890625 330.589844 44.8125 C 332.949219 44.738281 336.023438 43.734375 339.730469 40.847656 L 345.960938 45.238281 C 344.371094 49.804688 344.316406 53.019531 344.925781 55.339844 Z M 344.925781 55.339844 " fill-opacity="1" fill-rule="nonzero"/></g></g></g><g clip-path="url(#699596677f)"><path fill="#00bf63" d="M 30.65625 74.171875 L 30.65625 82.496094 C 20.570312 85.445312 19.066406 90.675781 19.066406 93.535156 L 10.390625 93.535156 C 10.390625 91.148438 10.941406 86.832031 14.253906 82.671875 L 0.335938 82.671875 L 0.335938 73.996094 L 14.253906 73.996094 C 10.941406 69.835938 10.390625 65.519531 10.390625 63.136719 L 19.066406 63.136719 C 19.066406 65.992188 20.570312 71.222656 30.65625 74.171875 Z M 30.65625 74.171875 " fill-opacity="1" fill-rule="nonzero"/></g><g fill="#ff914d" fill-opacity="1"><g transform="translate(46.681198, 91.910502)"><g><path d="M 0.832031 0 L 11.644531 0 L 11.644531 -17.179688 L 24.207031 0 L 38.347656 0 L 38.347656 -29.113281 L 27.535156 -29.113281 L 27.535156 -11.9375 L 14.972656 -29.113281 L 0.832031 -29.113281 Z M 0.832031 0 "/></g></g></g><g fill="#ff914d" fill-opacity="1"><g transform="translate(85.859591, 91.910502)"><g><path d="M 0.832031 0 L 31.609375 0 L 31.609375 -8.320312 L 11.644531 -8.320312 L 11.644531 -11.023438 L 31.609375 -11.023438 L 31.609375 -18.09375 L 11.644531 -18.09375 L 11.644531 -20.796875 L 31.609375 -20.796875 L 31.609375 -29.113281 L 0.832031 -29.113281 Z M 0.832031 0 "/></g></g></g><g fill="#ff914d" fill-opacity="1"><g transform="translate(117.884393, 91.910502)"><g><path d="M 0.414062 0 L 14.558594 0 L 21.878906 -8.320312 L 29.199219 0 L 43.339844 0 L 29.574219 -14.558594 L 43.339844 -29.113281 L 29.199219 -29.113281 L 21.878906 -20.796875 L 14.558594 -29.113281 L 0.414062 -29.113281 L 14.183594 -14.558594 Z M 0.414062 0 "/></g></g></g><g fill="#ff914d" fill-opacity="1"><g transform="translate(161.637766, 91.910502)"><g><path d="M 12.894531 0 L 23.707031 0 L 23.707031 -19.964844 L 36.1875 -19.964844 L 36.1875 -29.113281 L 0.414062 -29.113281 L 0.414062 -19.964844 L 12.894531 -19.964844 Z M 12.894531 0 "/></g></g></g><g fill="#ff914d" fill-opacity="1"><g transform="translate(198.237547, 91.910502)"><g><path d="M 0.832031 0 L 31.609375 0 L 31.609375 -8.320312 L 11.644531 -8.320312 L 11.644531 -11.023438 L 31.609375 -11.023438 L 31.609375 -18.09375 L 11.644531 -18.09375 L 11.644531 -20.796875 L 31.609375 -20.796875 L 31.609375 -29.113281 L 0.832031 -29.113281 Z M 0.832031 0 "/></g></g></g><g fill="#ff914d" fill-opacity="1"><g transform="translate(230.262349, 91.910502)"><g><path d="M 0.832031 0 L 31.609375 0 L 31.609375 -8.320312 L 11.644531 -8.320312 L 11.644531 -11.023438 L 31.609375 -11.023438 L 31.609375 -18.09375 L 11.644531 -18.09375 L 11.644531 -20.796875 L 31.609375 -20.796875 L 31.609375 -29.113281 L 0.832031 -29.113281 Z M 0.832031 0 "/></g></g></g><g fill="#00bf63" fill-opacity="1"><g transform="translate(97.71839, 113.804163)"><g><path d="M 5.507812 0 L 10.125 0 L 10.125 -8.527344 L 15.457031 -8.527344 L 15.457031 -12.4375 L 0.175781 -12.4375 L 0.175781 -8.527344 L 5.507812 -8.527344 Z M 5.507812 0 "/></g></g></g><g fill="#00bf63" fill-opacity="1"><g transform="translate(113.350851, 113.804163)"><g><path d="M 0.355469 0 L 13.5 0 L 13.5 -3.554688 L 4.972656 -3.554688 L 4.972656 -4.707031 L 13.5 -4.707031 L 13.5 -7.726562 L 4.972656 -7.726562 L 4.972656 -8.882812 L 13.5 -8.882812 L 13.5 -12.4375 L 0.355469 -12.4375 Z M 0.355469 0 "/></g></g></g><g fill="#00bf63" fill-opacity="1"><g transform="translate(127.029252, 113.804163)"><g><path d="M 0.355469 0 L 4.972656 0 L 4.972656 -5.914062 L 8.367188 0 L 11.386719 0 L 14.78125 -5.914062 L 14.78125 0 L 19.398438 0 L 19.398438 -12.4375 L 13.714844 -12.4375 L 9.878906 -5.328125 L 6.039062 -12.4375 L 0.355469 -12.4375 Z M 0.355469 0 "/></g></g></g><g fill="#00bf63" fill-opacity="1"><g transform="translate(146.782995, 113.804163)"><g><path d="M 0.355469 0 L 4.972656 0 L 4.972656 -2.914062 L 10.125 -2.914062 C 12.949219 -2.914062 14.886719 -4.902344 14.886719 -7.675781 C 14.886719 -10.445312 12.949219 -12.4375 10.125 -12.4375 L 0.355469 -12.4375 Z M 4.972656 -6.820312 L 4.972656 -8.527344 L 9.238281 -8.527344 C 9.699219 -8.527344 10.269531 -8.527344 10.269531 -7.675781 C 10.269531 -6.820312 9.699219 -6.820312 9.238281 -6.820312 Z M 4.972656 -6.820312 "/></g></g></g><g fill="#00bf63" fill-opacity="1"><g transform="translate(161.847003, 113.804163)"><g><path d="M 0.355469 0 L 13.144531 0 L 13.144531 -3.910156 L 4.972656 -3.910156 L 4.972656 -12.4375 L 0.355469 -12.4375 Z M 0.355469 0 "/></g></g></g><g fill="#00bf63" fill-opacity="1"><g transform="translate(175.170115, 113.804163)"><g><path d="M 0.175781 0 L 5.257812 0 L 6.109375 -2.238281 L 11.40625 -2.238281 L 12.257812 0 L 17.339844 0 L 12.1875 -12.4375 L 5.328125 -12.4375 Z M 7.320312 -5.4375 L 8.757812 -9.238281 L 10.195312 -5.4375 Z M 7.320312 -5.4375 "/></g></g></g><g fill="#00bf63" fill-opacity="1"><g transform="translate(192.685573, 113.804163)"><g><path d="M 5.507812 0 L 10.125 0 L 10.125 -8.527344 L 15.457031 -8.527344 L 15.457031 -12.4375 L 0.175781 -12.4375 L 0.175781 -8.527344 L 5.507812 -8.527344 Z M 5.507812 0 "/></g></g></g><g fill="#00bf63" fill-opacity="1"><g transform="translate(208.31803, 113.804163)"><g><path d="M 0.355469 0 L 13.5 0 L 13.5 -3.554688 L 4.972656 -3.554688 L 4.972656 -4.707031 L 13.5 -4.707031 L 13.5 -7.726562 L 4.972656 -7.726562 L 4.972656 -8.882812 L 13.5 -8.882812 L 13.5 -12.4375 L 0.355469 -12.4375 Z M 0.355469 0 "/></g></g></g></svg>