<svg xmlns="http://www.w3.org/2000/svg" xmlns:xlink="http://www.w3.org/1999/xlink" width="500" zoomAndPan="magnify" viewBox="0 0 375 374.999991" height="500" preserveAspectRatio="xMidYMid meet" version="1.0"><defs><g/><clipPath id="b3f1073f30"><path d="M 185 130 L 355 130 L 355 256 L 185 256 Z M 185 130 " clip-rule="nonzero"/></clipPath><clipPath id="c36e5e9b1e"><path d="M 177.5 148.574219 L 341.257812 108.882812 L 369.734375 226.359375 L 205.976562 266.050781 Z M 177.5 148.574219 " clip-rule="nonzero"/></clipPath><clipPath id="90a69daab1"><path d="M 177.5 148.574219 L 341.257812 108.882812 L 369.734375 226.359375 L 205.976562 266.050781 Z M 177.5 148.574219 " clip-rule="nonzero"/></clipPath><clipPath id="29351c8531"><path d="M 5.398438 172.25 L 35.921875 172.25 L 35.921875 202.777344 L 5.398438 202.777344 Z M 5.398438 172.25 " clip-rule="nonzero"/></clipPath></defs><g clip-path="url(#b3f1073f30)"><g clip-path="url(#c36e5e9b1e)"><g clip-path="url(#90a69daab1)"><path fill="#00bf63" d="M 351.085938 164.433594 C 351.699219 166.753906 352.984375 168.136719 354.039062 168.914062 C 352.449219 171.070312 350.847656 173.210938 349.238281 175.347656 C 347.488281 174.03125 344.640625 171.234375 343.394531 166.519531 C 340.441406 170.472656 337.453125 174.398438 334.429688 178.296875 C 330.972656 182.746094 327.472656 187.164062 323.914062 191.539062 C 320.359375 195.917969 316.75 200.25 313.070312 204.535156 C 309.390625 208.820312 305.644531 213.054688 301.808594 217.214844 C 297.96875 221.378906 294.039062 225.46875 289.96875 229.449219 C 285.898438 233.429688 281.695312 237.296875 277.238281 240.957031 C 272.773438 244.601562 268.09375 248.082031 262.765625 250.941406 C 260.09375 252.355469 257.242188 253.617188 254.023438 254.398438 C 252.410156 254.777344 250.695312 255.027344 248.878906 255.003906 C 247.972656 254.992188 247.039062 254.894531 246.105469 254.726562 C 245.167969 254.542969 244.230469 254.269531 243.316406 253.898438 C 242.410156 253.515625 241.539062 253.042969 240.730469 252.492188 C 240 251.929688 239.257812 251.40625 238.609375 250.726562 C 237.917969 250.101562 237.34375 249.355469 236.765625 248.621094 C 236.507812 248.234375 236.253906 247.84375 236.003906 247.449219 C 235.875 247.253906 235.765625 247.050781 235.664062 246.84375 L 235.355469 246.230469 C 234.554688 244.578125 234.019531 242.847656 233.753906 241.167969 L 233.640625 240.535156 L 233.574219 239.910156 C 233.53125 239.496094 233.480469 239.078125 233.449219 238.664062 C 233.425781 237.851562 233.367188 237.019531 233.40625 236.226562 C 233.476562 233.023438 233.972656 229.992188 234.652344 227.082031 C 235.335938 224.171875 236.199219 221.367188 237.148438 218.621094 C 239.050781 213.132812 241.300781 207.882812 243.640625 202.714844 C 245.976562 197.550781 248.421875 192.472656 250.84375 187.421875 C 253.261719 182.371094 255.664062 177.34375 257.894531 172.289062 C 260.113281 167.242188 262.203125 162.15625 263.707031 157.070312 C 264.453125 154.53125 265.039062 151.988281 265.324219 149.546875 L 265.398438 148.644531 L 265.4375 148.195312 L 265.445312 147.753906 C 265.449219 147.464844 265.464844 147.167969 265.464844 146.882812 L 265.425781 146.042969 C 265.34375 144.945312 265.160156 143.925781 264.851562 143.058594 C 264.519531 142.203125 264.082031 141.511719 263.507812 140.917969 C 263.359375 140.773438 263.230469 140.609375 263.046875 140.492188 L 262.792969 140.292969 C 262.707031 140.226562 262.640625 140.152344 262.523438 140.089844 C 262.3125 139.960938 262.101562 139.832031 261.894531 139.695312 L 261.234375 139.363281 C 260.339844 138.949219 259.371094 138.664062 258.332031 138.503906 C 257.296875 138.335938 256.175781 138.34375 255.035156 138.421875 C 252.738281 138.597656 250.320312 139.246094 247.933594 140.109375 C 245.542969 141 243.167969 142.125 240.835938 143.390625 C 236.175781 145.941406 231.6875 149.03125 227.34375 152.34375 C 223 155.664062 218.800781 159.222656 214.710938 162.929688 C 210.625 166.636719 206.640625 170.480469 202.761719 174.433594 C 200.820312 176.40625 198.90625 178.40625 197.019531 180.429688 C 196.074219 181.441406 195.140625 182.460938 194.210938 183.484375 C 193.292969 184.5 192.351562 185.550781 191.488281 186.550781 L 185.445312 181.355469 C 186.417969 180.238281 187.347656 179.199219 188.308594 178.136719 C 189.265625 177.082031 190.226562 176.035156 191.195312 175 C 193.128906 172.921875 195.089844 170.871094 197.082031 168.847656 C 201.058594 164.800781 205.144531 160.851562 209.363281 157.027344 C 213.585938 153.203125 217.941406 149.503906 222.507812 146.011719 C 227.082031 142.53125 231.847656 139.234375 237.023438 136.398438 C 239.621094 134.988281 242.320312 133.699219 245.183594 132.632812 C 248.0625 131.597656 251.101562 130.742188 254.40625 130.480469 C 256.054688 130.363281 257.757812 130.355469 259.496094 130.621094 C 261.226562 130.882812 262.972656 131.382812 264.621094 132.152344 C 265.027344 132.355469 265.433594 132.554688 265.832031 132.769531 L 266.988281 133.492188 C 267.175781 133.605469 267.371094 133.765625 267.5625 133.914062 L 268.136719 134.363281 C 268.523438 134.652344 268.867188 135.011719 269.214844 135.363281 C 270.597656 136.773438 271.65625 138.515625 272.316406 140.285156 C 272.960938 142.0625 273.25 143.824219 273.375 145.519531 L 273.429688 146.78125 C 273.429688 147.195312 273.414062 147.601562 273.40625 148.011719 L 273.390625 148.621094 L 273.34375 149.21875 L 273.242188 150.414062 C 272.878906 153.542969 272.179688 156.480469 271.347656 159.316406 C 269.667969 164.988281 267.46875 170.292969 265.179688 175.503906 C 262.882812 180.710938 260.449219 185.800781 258.027344 190.863281 C 255.601562 195.921875 253.179688 200.953125 250.894531 206 C 248.609375 211.046875 246.445312 216.117188 244.671875 221.226562 C 243.789062 223.777344 243.007812 226.339844 242.410156 228.890625 C 241.808594 231.433594 241.417969 233.972656 241.371094 236.375 C 241.335938 236.984375 241.390625 237.554688 241.398438 238.140625 C 241.421875 238.425781 241.457031 238.703125 241.484375 238.984375 L 241.527344 239.40625 L 241.601562 239.808594 C 241.765625 240.898438 242.097656 241.867188 242.515625 242.738281 L 242.675781 243.0625 C 242.722656 243.171875 242.777344 243.277344 242.847656 243.371094 C 242.980469 243.566406 243.105469 243.765625 243.226562 243.964844 C 243.53125 244.320312 243.792969 244.703125 244.15625 245.011719 C 244.464844 245.363281 244.894531 245.628906 245.257812 245.9375 C 245.609375 246.171875 245.976562 246.371094 246.359375 246.539062 C 246.75 246.691406 247.160156 246.8125 247.597656 246.902344 C 248.042969 246.976562 248.507812 247.035156 249 247.039062 C 249.988281 247.050781 251.074219 246.910156 252.1875 246.648438 C 254.425781 246.109375 256.757812 245.117188 259.03125 243.90625 C 263.597656 241.464844 267.980469 238.242188 272.1875 234.800781 C 276.398438 231.339844 280.453125 227.613281 284.402344 223.753906 C 288.347656 219.894531 292.1875 215.894531 295.953125 211.816406 C 299.714844 207.734375 303.402344 203.570312 307.027344 199.347656 C 310.652344 195.125 314.21875 190.84375 317.734375 186.515625 C 321.25 182.191406 324.714844 177.820312 328.132812 173.414062 C 331.128906 169.554688 334.089844 165.667969 337.011719 161.753906 C 332.15625 161.863281 328.699219 159.859375 326.949219 158.542969 C 328.503906 156.480469 330.050781 154.410156 331.582031 152.335938 C 332.636719 153.113281 334.332031 153.949219 336.707031 153.871094 C 339.074219 153.796875 342.15625 152.789062 345.875 149.894531 L 352.125 154.296875 C 350.527344 158.878906 350.476562 162.105469 351.085938 164.433594 Z M 351.085938 164.433594 " fill-opacity="1" fill-rule="nonzero"/></g></g></g><g clip-path="url(#29351c8531)"><path fill="#00bf63" d="M 35.816406 183.320312 L 35.816406 191.671875 C 25.703125 194.628906 24.191406 199.878906 24.191406 202.742188 L 15.492188 202.742188 C 15.492188 200.351562 16.042969 196.019531 19.367188 191.847656 L 5.410156 191.847656 L 5.410156 183.144531 L 19.367188 183.144531 C 16.042969 178.972656 15.492188 174.644531 15.492188 172.25 L 24.191406 172.25 C 24.191406 175.117188 25.703125 180.363281 35.816406 183.320312 Z M 35.816406 183.320312 " fill-opacity="1" fill-rule="nonzero"/></g><g fill="#ff914d" fill-opacity="1"><g transform="translate(51.898345, 201.118244)"><g><path d="M 0.835938 0 L 11.683594 0 L 11.683594 -17.234375 L 24.285156 0 L 38.46875 0 L 38.46875 -29.207031 L 27.621094 -29.207031 L 27.621094 -11.976562 L 15.019531 -29.207031 L 0.835938 -29.207031 Z M 0.835938 0 "/></g></g></g><g fill="#ff914d" fill-opacity="1"><g transform="translate(91.201113, 201.118244)"><g><path d="M 0.835938 0 L 31.710938 0 L 31.710938 -8.34375 L 11.683594 -8.34375 L 11.683594 -11.058594 L 31.710938 -11.058594 L 31.710938 -18.152344 L 11.683594 -18.152344 L 11.683594 -20.863281 L 31.710938 -20.863281 L 31.710938 -29.207031 L 0.835938 -29.207031 Z M 0.835938 0 "/></g></g></g><g fill="#ff914d" fill-opacity="1"><g transform="translate(123.32758, 201.118244)"><g><path d="M 0.417969 0 L 14.605469 0 L 21.949219 -8.34375 L 29.292969 0 L 43.476562 0 L 29.667969 -14.605469 L 43.476562 -29.207031 L 29.292969 -29.207031 L 21.949219 -20.863281 L 14.605469 -29.207031 L 0.417969 -29.207031 L 14.226562 -14.605469 Z M 0.417969 0 "/></g></g></g><g fill="#ff914d" fill-opacity="1"><g transform="translate(167.219851, 201.118244)"><g><path d="M 12.933594 0 L 23.785156 0 L 23.785156 -20.027344 L 36.300781 -20.027344 L 36.300781 -29.207031 L 0.417969 -29.207031 L 0.417969 -20.027344 L 12.933594 -20.027344 Z M 12.933594 0 "/></g></g></g><g fill="#ff914d" fill-opacity="1"><g transform="translate(203.935821, 201.118244)"><g><path d="M 0.835938 0 L 31.710938 0 L 31.710938 -8.34375 L 11.683594 -8.34375 L 11.683594 -11.058594 L 31.710938 -11.058594 L 31.710938 -18.152344 L 11.683594 -18.152344 L 11.683594 -20.863281 L 31.710938 -20.863281 L 31.710938 -29.207031 L 0.835938 -29.207031 Z M 0.835938 0 "/></g></g></g><g fill="#ff914d" fill-opacity="1"><g transform="translate(236.062288, 201.118244)"><g><path d="M 0.835938 0 L 31.710938 0 L 31.710938 -8.34375 L 11.683594 -8.34375 L 11.683594 -11.058594 L 31.710938 -11.058594 L 31.710938 -18.152344 L 11.683594 -18.152344 L 11.683594 -20.863281 L 31.710938 -20.863281 L 31.710938 -29.207031 L 0.835938 -29.207031 Z M 0.835938 0 "/></g></g></g><g fill="#00bf63" fill-opacity="1"><g transform="translate(145.697558, 218.881439)"><g><path d="M 5.523438 0 L 10.160156 0 L 10.160156 -8.554688 L 15.503906 -8.554688 L 15.503906 -12.476562 L 0.179688 -12.476562 L 0.179688 -8.554688 L 5.523438 -8.554688 Z M 5.523438 0 "/></g></g></g><g fill="#00bf63" fill-opacity="1"><g transform="translate(161.379647, 218.881439)"><g><path d="M 8.019531 0.179688 C 13.492188 0.179688 15.859375 -1.925781 15.859375 -6.253906 C 15.859375 -10.566406 13.492188 -12.652344 8.019531 -12.652344 C 2.53125 -12.652344 0.179688 -10.585938 0.179688 -6.253906 C 0.179688 -1.90625 2.53125 0.179688 8.019531 0.179688 Z M 8.019531 -3.742188 C 5.292969 -3.742188 4.8125 -4.917969 4.8125 -6.253906 C 4.8125 -7.574219 5.273438 -8.734375 8.019531 -8.734375 C 10.765625 -8.734375 11.226562 -7.554688 11.226562 -6.253906 C 11.226562 -4.9375 10.746094 -3.742188 8.019531 -3.742188 Z M 8.019531 -3.742188 "/></g></g></g><g fill="#00bf63" fill-opacity="1"><g transform="translate(177.418144, 218.881439)"><g><path d="M 8.019531 0.179688 C 13.492188 0.179688 15.859375 -1.925781 15.859375 -6.253906 C 15.859375 -10.566406 13.492188 -12.652344 8.019531 -12.652344 C 2.53125 -12.652344 0.179688 -10.585938 0.179688 -6.253906 C 0.179688 -1.90625 2.53125 0.179688 8.019531 0.179688 Z M 8.019531 -3.742188 C 5.292969 -3.742188 4.8125 -4.917969 4.8125 -6.253906 C 4.8125 -7.574219 5.273438 -8.734375 8.019531 -8.734375 C 10.765625 -8.734375 11.226562 -7.554688 11.226562 -6.253906 C 11.226562 -4.9375 10.746094 -3.742188 8.019531 -3.742188 Z M 8.019531 -3.742188 "/></g></g></g><g fill="#00bf63" fill-opacity="1"><g transform="translate(193.45664, 218.881439)"><g><path d="M 0.355469 0 L 13.1875 0 L 13.1875 -3.921875 L 4.988281 -3.921875 L 4.988281 -12.476562 L 0.355469 -12.476562 Z M 0.355469 0 "/></g></g></g><g fill="#00bf63" fill-opacity="1"><g transform="translate(206.822054, 218.881439)"><g><path d="M 8.144531 0.179688 C 13.257812 0.179688 16.109375 -0.695312 16.109375 -4.132812 C 16.109375 -7.394531 13.0625 -7.734375 8.144531 -7.929688 C 5.4375 -8.039062 4.988281 -8.019531 4.988281 -8.5 C 4.988281 -8.980469 5.4375 -9.089844 7.609375 -9.089844 C 9.875 -9.089844 10.941406 -8.945312 10.941406 -8.285156 L 15.574219 -8.285156 C 15.574219 -11.476562 12.832031 -12.652344 7.964844 -12.652344 C 3.046875 -12.652344 0.355469 -11.476562 0.355469 -8.734375 C 0.355469 -5.828125 2.511719 -4.902344 8.144531 -4.722656 C 11.066406 -4.632812 11.476562 -4.5625 11.476562 -4.027344 C 11.476562 -3.5625 11.066406 -3.386719 8.324219 -3.386719 C 5.382812 -3.386719 4.8125 -3.796875 4.8125 -4.402344 L 0.179688 -4.402344 C 0.179688 -0.695312 3.03125 0.179688 8.144531 0.179688 Z M 8.144531 0.179688 "/></g></g></g></svg>